# xmcd
#
# Track frame offsets:
#	150
#	18606
#	38100
#	57699
#	76343
#	101688
#	120590
#	145345
#	167246
#	189157
#	204116
#
# Disc length: 3031
#
# Revision: 1
# Processed by: cddbd v1.5.1PL0 Copyright (c) Steve Scherf et al.
# Submitted via: EasyCDDAExtractor 4.6.9.1
# Normalized: r0:TRMNUM
#
DISCID=920bd50b
DTITLE=Florin Chilian - Iubi
DYEAR=2001
DGENRE=
TTITLE0=Florin Chilian - Ursitoare
TTITLE1=Florin Chilian - Lumi albe
TTITLE2=Florin Chilian - So why
TTITLE3=Florin Chilian - Vecina de sus
TTITLE4=Florin Chilian - Iubi
TTITLE5=Florin Chilian - Cintecu lu' Tanase
TTITLE6=Florin Chilian - Intoarce-te cind dorm
TTITLE7=Florin Chilian - Salveaza-te de mine
TTITLE8=Florin Chilian - Chiar daca...
TTITLE9=Florin Chilian - Taxe
TTITLE10=Florin Chilian - Pasaport pentru suflet
EXTD=
EXTT0=
EXTT1=
EXTT2=
EXTT3=
EXTT4=
EXTT5=
EXTT6=
EXTT7=
EXTT8=
EXTT9=
EXTT10=
PLAYORDER=
